<svg width="45" height="37" viewBox="0 0 45 37" fill="none" xmlns="http://www.w3.org/2000/svg">
    <path fill-rule="evenodd" clip-rule="evenodd"
          d="M34.0234 2.36719H10.9766C8.43088 2.36719 6.36719 4.43088 6.36719 6.97656V15.043H4.0625V6.97656C4.0625 3.15803 7.15803 0.0625 10.9766 0.0625H34.0234C37.842 0.0625 40.9375 3.15803 40.9375 6.97656V15.043H38.6328V6.97656C38.6328 4.43088 36.5691 2.36719 34.0234 2.36719ZM4.0625 21.957V30.0234C4.0625 33.842 7.15803 36.9375 10.9766 36.9375H34.0234C37.842 36.9375 40.9375 33.842 40.9375 30.0234V21.957H38.6328V30.0234C38.6328 32.5691 36.5691 34.6328 34.0234 34.6328H10.9766C8.43088 34.6328 6.36719 32.5691 6.36719 30.0234V21.957H4.0625Z"
          fill="#8DBF4C"/>
    <path fill-rule="evenodd" clip-rule="evenodd" d="M21.3477 27.373V17.3477H23.6523V27.373H21.3477Z" fill="#212529"/>
    <path fill-rule="evenodd" clip-rule="evenodd" d="M16.7383 27.373V17.3477H19.043V27.373H16.7383Z" fill="#212529"/>
    <path fill-rule="evenodd" clip-rule="evenodd" d="M12.1289 27.373V17.3477H14.4336V27.373H12.1289Z" fill="#212529"/>
    <path fill-rule="evenodd" clip-rule="evenodd" d="M25.957 27.373V17.3477H28.2617V27.373H25.957Z" fill="#212529"/>
    <path fill-rule="evenodd" clip-rule="evenodd" d="M30.5664 27.373V17.3477H32.8711V27.373H30.5664Z" fill="#212529"/>
    <path fill-rule="evenodd" clip-rule="evenodd" d="M21.3477 16.0801V9.62695H23.6523V16.0801H21.3477Z" fill="#212529"/>
    <path fill-rule="evenodd" clip-rule="evenodd" d="M16.7383 16.0801V9.62695H19.043V16.0801H16.7383Z" fill="#212529"/>
    <path fill-rule="evenodd" clip-rule="evenodd" d="M12.1289 16.0801V9.62695H14.4336V16.0801H12.1289Z" fill="#212529"/>
    <path fill-rule="evenodd" clip-rule="evenodd" d="M25.957 16.0801V9.62695H28.2617V16.0801H25.957Z" fill="#212529"/>
    <path fill-rule="evenodd" clip-rule="evenodd" d="M30.5664 16.0801V9.62695H32.8711V16.0801H30.5664Z" fill="#212529"/>
    <path fill-rule="evenodd" clip-rule="evenodd"
          d="M0.375 18.5C0.375 17.8636 0.890922 17.3477 1.52734 17.3477H43.4727C44.1091 17.3477 44.625 17.8636 44.625 18.5C44.625 19.1364 44.1091 19.6523 43.4727 19.6523H1.52734C0.890922 19.6523 0.375 19.1364 0.375 18.5Z"
          fill="#8DBF4C"/>
</svg>
