<svg width="16" height="16" viewBox="0 0 16 16" fill="none" xmlns="http://www.w3.org/2000/svg">
    <path fill-rule="evenodd" clip-rule="evenodd"
          d="M9.26016 5.80001L8.00016 7.06001L6.74016 5.80001C6.48016 5.54001 6.06016 5.54001 5.80016 5.80001C5.54016 6.06001 5.54016 6.48001 5.80016 6.74001L7.06016 8.00001L5.80016 9.26001C5.54016 9.52001 5.54016 9.94001 5.80016 10.2C6.06016 10.46 6.48016 10.46 6.74016 10.2L8.00016 8.94001L9.26016 10.2C9.52016 10.46 9.94016 10.46 10.2002 10.2C10.4602 9.94001 10.4602 9.52001 10.2002 9.26001L8.94016 8.00001L10.2002 6.74001C10.4602 6.48001 10.4602 6.06001 10.2002 5.80001C9.94016 5.54668 9.5135 5.54668 9.26016 5.80001ZM8.00016 1.33334C4.3135 1.33334 1.3335 4.31334 1.3335 8.00001C1.3335 11.6867 4.3135 14.6667 8.00016 14.6667C11.6868 14.6667 14.6668 11.6867 14.6668 8.00001C14.6668 4.31334 11.6868 1.33334 8.00016 1.33334ZM8.00016 13.3333C5.06016 13.3333 2.66683 10.94 2.66683 8.00001C2.66683 5.06001 5.06016 2.66668 8.00016 2.66668C10.9402 2.66668 13.3335 5.06001 13.3335 8.00001C13.3335 10.94 10.9402 13.3333 8.00016 13.3333Z"
          fill="#E63E3E"/>
</svg>
