<svg width="16" height="16" viewBox="0 0 16 16" fill="none" xmlns="http://www.w3.org/2000/svg">
    <path fill-rule="evenodd" clip-rule="evenodd"
          d="M8.00016 1.33334C4.32016 1.33334 1.3335 4.32001 1.3335 8.00001C1.3335 11.68 4.32016 14.6667 8.00016 14.6667C11.6802 14.6667 14.6668 11.68 14.6668 8.00001C14.6668 4.32001 11.6802 1.33334 8.00016 1.33334ZM8.00016 13.3333C5.06016 13.3333 2.66683 10.94 2.66683 8.00001C2.66683 5.06001 5.06016 2.66668 8.00016 2.66668C10.9402 2.66668 13.3335 5.06001 13.3335 8.00001C13.3335 10.94 10.9402 13.3333 8.00016 13.3333ZM10.5868 5.52668L6.66684 9.44668L5.4135 8.19334C5.1535 7.93334 4.7335 7.93334 4.4735 8.19334C4.2135 8.45334 4.2135 8.87334 4.4735 9.13334L6.20017 10.86C6.46017 11.12 6.88017 11.12 7.14017 10.86L11.5335 6.46668C11.7935 6.20668 11.7935 5.78668 11.5335 5.52668C11.2735 5.26668 10.8468 5.26668 10.5868 5.52668Z"
          fill="#8DBF4C"/>
</svg>
