<svg width="36" height="24" viewBox="0 0 36 24" fill="none" xmlns="http://www.w3.org/2000/svg">
    <path d="M36.0002 0H-6.10352e-05V24H36.0002V0Z" fill="#000066"/>
    <path d="M-6.10352e-05 0V2.68328L31.9752 24H36.0002V21.3167L4.02489 0H-6.10352e-05ZM36.0002 0V2.68324L4.02489 24H-6.10352e-05V21.3166L31.9752 0H36.0002Z"
          fill="white"/>
    <path d="M15 0V24H21.0001V0H15ZM-6.10352e-05 8V16H36.0002V8H-6.10352e-05Z" fill="white"/>
    <path d="M-6.10352e-05 9.6V14.4H36.0002V9.6H-6.10352e-05ZM16.2 0V24H19.8001V0H16.2Z" fill="#CC0000"/>
    <path d="M-6.10352e-05 24L12 16H14.6833L2.68324 24H-6.10352e-05ZM-6.10352e-05 0L12 8H9.31674L-6.10352e-05 1.78886V0ZM21.3168 8L33.3169 0H36.0002L24.0001 8H21.3168ZM36.0002 24L24.0001 16H26.6834L36.0002 22.2111V24Z"
          fill="#CC0000"/>
</svg>
